<?xml version="1.0" encoding="UTF-8" standalone="no"?>
<!DOCTYPE svg PUBLIC "-//W3C//DTD SVG 1.1//EN"
 "http://www.w3.org/Graphics/SVG/1.1/DTD/svg11.dtd">
<!-- Generated by graphviz version 2.43.0 (0)
 -->
<!-- Title: G Pages: 1 -->
<svg width="1097pt" height="663pt"
 viewBox="0.00 0.00 1097.00 663.00" xmlns="http://www.w3.org/2000/svg" xmlns:xlink="http://www.w3.org/1999/xlink">
<g id="graph0" class="graph" transform="scale(1 1) rotate(0) translate(4 659)">
<title>G</title>
<polygon fill="white" stroke="transparent" points="-4,4 -4,-659 1093,-659 1093,4 -4,4"/>
<!-- return_from_message_call -->
<g id="node1" class="node">
<title>return_from_message_call</title>
<polygon fill="WHITE" stroke="transparent" points="8,-576 8,-642 577,-642 577,-576 8,-576"/>
<polygon fill="none" stroke="black" points="8.5,-576 8.5,-642 577.5,-642 577.5,-576 8.5,-576"/>
<text text-anchor="start" x="19.5" y="-599" font-family="Handlee" font-size="40.00">RETURN from message call</text>
</g>
<!-- will_write_to_ram -->
<g id="node3" class="node">
<title>will_write_to_ram</title>
<polygon fill="LIGHTGREEN" stroke="BLUE" points="292.5,-467 131.5,-398 292.5,-329 453.5,-398 292.5,-467"/>
<text text-anchor="middle" x="292.5" y="-401.3" font-family="Handlee" font-size="14.00">Will write to RAM</text>
<text text-anchor="middle" x="292.5" y="-386.3" font-family="Handlee" font-size="14.00">i.e. trigger_MMU = 1</text>
<text text-anchor="middle" x="292.5" y="-371.3" font-family="Handlee" font-size="14.00"> </text>
</g>
<!-- return_from_message_call&#45;&gt;will_write_to_ram -->
<g id="edge1" class="edge">
<title>return_from_message_call&#45;&gt;will_write_to_ram</title>
<path fill="none" stroke="black" d="M292.5,-571.59C292.5,-545.63 292.5,-509.74 292.5,-477.41"/>
<polygon fill="black" stroke="black" points="296,-477.05 292.5,-467.05 289,-477.05 296,-477.05"/>
</g>
<!-- triggerMMU -->
<g id="node2" class="node">
<title>triggerMMU</title>
<polygon fill="YELLOW" stroke="BLUE" points="1013.5,-655 603.5,-655 603.5,-563 1013.5,-563 1013.5,-655"/>
<text text-anchor="start" x="621.5" y="-626" font-family="Handlee" font-weight="bold" font-size="20.00">DEPLOYS</text>
<text text-anchor="start" x="724.5" y="-626" font-family="Handlee" font-size="20.00"> = </text>
<text text-anchor="start" x="753.5" y="-626" font-family="Handlee" font-weight="bold" font-size="20.00">0</text>
<text text-anchor="start" x="621.5" y="-584" font-family="Handlee" font-weight="bold" font-size="20.00">trigger_MMU</text>
<text text-anchor="start" x="766.5" y="-584" font-family="Handlee" font-size="20.00"> = [ R@C · size_lo ≠ 0 ]</text>
</g>
<!-- wont_write_to_ram -->
<g id="node4" class="node">
<title>wont_write_to_ram</title>
<polygon fill="LIGHTGREEN" stroke="BLUE" points="292.5,-185.5 131.5,-116.5 292.5,-47.5 453.5,-116.5 292.5,-185.5"/>
<text text-anchor="middle" x="292.5" y="-119.8" font-family="Handlee" font-size="14.00">Won&#39;t write to RAM</text>
<text text-anchor="middle" x="292.5" y="-104.8" font-family="Handlee" font-size="14.00">i.e. trigger_MMU = 0</text>
<text text-anchor="middle" x="292.5" y="-89.8" font-family="Handlee" font-size="14.00"> </text>
</g>
<!-- will_write_to_ram&#45;&gt;wont_write_to_ram -->
<g id="edge3" class="edge">
<title>will_write_to_ram&#45;&gt;wont_write_to_ram</title>
<path fill="none" stroke="black" d="M292.5,-328.98C292.5,-288.83 292.5,-237.83 292.5,-195.98"/>
<polygon fill="black" stroke="black" points="296,-195.82 292.5,-185.82 289,-195.82 296,-195.82"/>
</g>
<!-- will_write_to_ram_rows -->
<g id="node5" class="node">
<title>will_write_to_ram_rows</title>
<polygon fill="LIGHTGRAY" stroke="transparent" points="480,-273 480,-523 1079,-523 1079,-273 480,-273"/>
<polygon fill="none" stroke="black" points="480.5,-473 480.5,-523 562.5,-523 562.5,-473 480.5,-473"/>
<text text-anchor="start" x="485.5" y="-494.3" font-family="Handlee" font-size="14.00">Row index</text>
<polygon fill="none" stroke="black" points="562.5,-473 562.5,-523 653.5,-523 653.5,-473 562.5,-473"/>
<text text-anchor="start" x="567.5" y="-494.3" font-family="Handlee" font-size="14.00">Perspective</text>
<polygon fill="none" stroke="black" points="653.5,-473 653.5,-523 713.5,-523 713.5,-473 653.5,-473"/>
<text text-anchor="start" x="668" y="-494.3" font-family="Handlee" font-size="14.00">Who</text>
<polygon fill="none" stroke="black" points="713.5,-473 713.5,-523 998.5,-523 998.5,-473 713.5,-473"/>
<text text-anchor="start" x="830.5" y="-494.3" font-family="Handlee" font-size="14.00">Actions</text>
<polygon fill="none" stroke="black" points="998.5,-498 998.5,-523 1079.5,-523 1079.5,-498 998.5,-498"/>
<text text-anchor="start" x="1019" y="-506.8" font-family="Handlee" font-size="14.00">When</text>
<polygon fill="none" stroke="black" points="998.5,-473 998.5,-498 1041.5,-498 1041.5,-473 998.5,-473"/>
<text text-anchor="start" x="1003.5" y="-481.8" font-family="Handlee" font-size="14.00">Dom</text>
<polygon fill="none" stroke="black" points="1041.5,-473 1041.5,-498 1079.5,-498 1079.5,-473 1041.5,-473"/>
<text text-anchor="start" x="1046.5" y="-481.8" font-family="Handlee" font-size="14.00">Sub</text>
<polygon fill="none" stroke="black" points="480.5,-448 480.5,-473 562.5,-473 562.5,-448 480.5,-448"/>
<text text-anchor="start" x="507.5" y="-456.8" font-family="Handlee" font-size="14.00">i &#45; 1</text>
<polygon fill="none" stroke="black" points="562.5,-448 562.5,-473 653.5,-473 653.5,-448 562.5,-448"/>
<text text-anchor="start" x="585.5" y="-456.8" font-family="Handlee" font-size="14.00">STACK</text>
<polygon fill="none" stroke="black" points="653.5,-448 653.5,-473 713.5,-473 713.5,-448 653.5,-448"/>
<text text-anchor="start" x="659" y="-456.8" font-family="Handlee" font-size="14.00">CT = 0</text>
<polygon fill="none" stroke="black" points="713.5,-448 713.5,-473 998.5,-473 998.5,-448 713.5,-448"/>
<text text-anchor="start" x="734.5" y="-457.8" font-family="Handlee" font-size="14.00">excavate stack items: </text>
<text text-anchor="start" x="890.5" y="-457.8" font-family="Handlee" font-weight="bold" font-size="14.00" fill="BLUE">offset</text>
<text text-anchor="start" x="936.5" y="-457.8" font-family="Handlee" font-size="14.00">, </text>
<text text-anchor="start" x="946.5" y="-457.8" font-family="Handlee" font-weight="bold" font-size="14.00" fill="GREEN">size</text>
<polygon fill="none" stroke="black" points="480.5,-423 480.5,-448 562.5,-448 562.5,-423 480.5,-423"/>
<text text-anchor="start" x="519.5" y="-431.8" font-family="Handlee" font-size="14.00">i</text>
<polygon fill="salmon" stroke="transparent" points="562.5,-423 562.5,-448 653.5,-448 653.5,-423 562.5,-423"/>
<polygon fill="none" stroke="black" points="562.5,-423 562.5,-448 653.5,-448 653.5,-423 562.5,-423"/>
<text text-anchor="start" x="593" y="-431.8" font-family="Handlee" font-size="14.00">SCN</text>
<polygon fill="salmon" stroke="transparent" points="653.5,-423 653.5,-448 998.5,-448 998.5,-423 653.5,-423"/>
<polygon fill="none" stroke="black" points="653.5,-423 653.5,-448 998.5,-448 998.5,-423 653.5,-423"/>
<text text-anchor="start" x="662.5" y="-431.8" font-family="Handlee" font-size="14.00">RETURN/MESSAGE_CALL_WILL_WRITE_TO_RAM</text>
<polygon fill="none" stroke="black" points="480.5,-398 480.5,-423 562.5,-423 562.5,-398 480.5,-398"/>
<text text-anchor="start" x="504.5" y="-406.8" font-family="Handlee" font-size="14.00">i + 1</text>
<polygon fill="none" stroke="black" points="562.5,-398 562.5,-423 653.5,-423 653.5,-398 562.5,-398"/>
<text text-anchor="start" x="592" y="-406.8" font-family="Handlee" font-size="14.00">CON</text>
<polygon fill="none" stroke="black" points="653.5,-398 653.5,-423 713.5,-423 713.5,-398 653.5,-398"/>
<text text-anchor="start" x="658.5" y="-406.8" font-family="Handlee" font-size="14.00">current</text>
<polygon fill="none" stroke="black" points="713.5,-398 713.5,-423 998.5,-423 998.5,-398 713.5,-398"/>
<text text-anchor="start" x="718.5" y="-407.8" font-family="Handlee" font-size="14.00">read: </text>
<text text-anchor="start" x="758.5" y="-407.8" font-family="Handlee" font-weight="bold" font-size="14.00">I</text>
<text text-anchor="start" x="764.5" y="-407.8" font-family="Handlee" font-weight="bold" baseline-shift="sub" font-size="14.00">a</text>
<text text-anchor="start" x="772.5" y="-407.8" font-family="Handlee" font-size="14.00"> , </text>
<text text-anchor="start" x="786.5" y="-407.8" font-family="Handlee" font-weight="bold" font-size="14.00">DEPLOYS</text>
<text text-anchor="start" x="858.5" y="-407.8" font-family="Handlee" font-size="14.00"> = </text>
<text text-anchor="start" x="880.5" y="-407.8" font-family="Handlee" font-weight="bold" font-size="14.00">0</text>
<text text-anchor="start" x="890.5" y="-407.8" font-family="Handlee" font-size="14.00">, </text>
<text text-anchor="start" x="900.5" y="-407.8" font-family="Handlee" font-weight="bold" font-size="14.00">R@O</text>
<text text-anchor="start" x="937.5" y="-407.8" font-family="Handlee" font-size="14.00">, </text>
<text text-anchor="start" x="947.5" y="-407.8" font-family="Handlee" font-weight="bold" font-size="14.00">R@C</text>
<text text-anchor="start" x="983.5" y="-407.8" font-family="Handlee" font-size="14.00">, </text>
<polygon fill="none" stroke="black" points="480.5,-298 480.5,-398 562.5,-398 562.5,-298 480.5,-298"/>
<text text-anchor="start" x="504.5" y="-344.3" font-family="Handlee" font-size="14.00">i + 2</text>
<polygon fill="none" stroke="black" points="562.5,-298 562.5,-398 653.5,-398 653.5,-298 562.5,-298"/>
<text text-anchor="start" x="590" y="-344.3" font-family="Handlee" font-size="14.00">MISC</text>
<polygon fill="none" stroke="black" points="653.5,-298 653.5,-398 713.5,-398 713.5,-298 653.5,-298"/>
<polygon fill="none" stroke="black" points="713.5,-373 713.5,-398 998.5,-398 998.5,-373 713.5,-373"/>
<text text-anchor="start" x="774" y="-382.8" font-family="Handlee" font-size="14.00">MXP🏴 = </text>
<text text-anchor="start" x="843" y="-382.8" font-family="Handlee" font-weight="bold" font-size="14.00">1</text>
<text text-anchor="start" x="853" y="-382.8" font-family="Handlee" font-size="14.00">, MXPX = </text>
<text text-anchor="start" x="923" y="-382.8" font-family="Handlee" font-weight="bold" font-size="14.00" fill="GREEN">0</text>
<text text-anchor="start" x="933" y="-382.8" font-family="Handlee" font-size="14.00"> </text>
<polygon fill="WHITE" stroke="transparent" points="713.5,-348 713.5,-373 998.5,-373 998.5,-348 713.5,-348"/>
<polygon fill="none" stroke="black" points="713.5,-348 713.5,-373 998.5,-373 998.5,-348 713.5,-348"/>
<text text-anchor="start" x="744.5" y="-357.8" font-family="Handlee" font-size="14.00">MMU🏴 = </text>
<text text-anchor="start" x="817.5" y="-357.8" font-family="Handlee" font-weight="bold" font-size="14.00" fill="SALMON">trigger_MMU (= 1)</text>
<text text-anchor="start" x="962.5" y="-357.8" font-family="Handlee" font-size="14.00"> </text>
<polygon fill="WHITE" stroke="transparent" points="713.5,-323 713.5,-348 998.5,-348 998.5,-323 713.5,-323"/>
<polygon fill="none" stroke="black" points="713.5,-323 713.5,-348 998.5,-348 998.5,-323 713.5,-323"/>
<text text-anchor="start" x="734" y="-331.8" font-family="Handlee" font-size="14.00">MMU_INST = writeReturnDataSlice </text>
<polygon fill="none" stroke="black" points="713.5,-298 713.5,-323 998.5,-323 998.5,-298 713.5,-298"/>
<text text-anchor="start" x="738.5" y="-307.8" font-family="Handlee" font-size="14.00">OOB🏴 = </text>
<text text-anchor="start" x="809.5" y="-307.8" font-family="Handlee" font-weight="bold" font-size="14.00">DEPLOYS</text>
<text text-anchor="start" x="881.5" y="-307.8" font-family="Handlee" font-size="14.00">, EVENT = </text>
<text text-anchor="start" x="958.5" y="-307.8" font-family="Handlee" font-weight="bold" font-size="14.00" fill="GREEN">0</text>
<text text-anchor="start" x="968.5" y="-307.8" font-family="Handlee" font-size="14.00"> </text>
<polygon fill="WHITE" stroke="transparent" points="480.5,-273 480.5,-298 562.5,-298 562.5,-273 480.5,-273"/>
<polygon fill="none" stroke="black" points="480.5,-273 480.5,-298 562.5,-298 562.5,-273 480.5,-273"/>
<text text-anchor="start" x="504.5" y="-281.8" font-family="Handlee" font-size="14.00">i + 3</text>
<polygon fill="WHITE" stroke="transparent" points="562.5,-273 562.5,-298 653.5,-298 653.5,-273 562.5,-273"/>
<polygon fill="none" stroke="black" points="562.5,-273 562.5,-298 653.5,-298 653.5,-273 562.5,-273"/>
<text text-anchor="start" x="592" y="-281.8" font-family="Handlee" font-size="14.00">CON</text>
<polygon fill="YELLOW" stroke="transparent" points="653.5,-273 653.5,-298 713.5,-298 713.5,-273 653.5,-273"/>
<polygon fill="none" stroke="black" points="653.5,-273 653.5,-298 713.5,-298 713.5,-273 653.5,-273"/>
<text text-anchor="start" x="660.5" y="-281.8" font-family="Handlee" font-size="14.00">parent</text>
<polygon fill="WHITE" stroke="transparent" points="713.5,-273 713.5,-298 998.5,-298 998.5,-273 713.5,-273"/>
<polygon fill="none" stroke="black" points="713.5,-273 713.5,-298 998.5,-298 998.5,-273 713.5,-273"/>
<text text-anchor="start" x="742.5" y="-282.8" font-family="Handlee" font-size="14.00">RD: </text>
<text text-anchor="start" x="772.5" y="-282.8" font-family="Handlee" font-weight="bold" font-size="14.00">RDO</text>
<text text-anchor="start" x="806.5" y="-282.8" font-family="Handlee" font-size="14.00"> = </text>
<text text-anchor="start" x="828.5" y="-282.8" font-family="Handlee" font-weight="bold" font-size="14.00" fill="BLUE">offset</text>
<text text-anchor="start" x="874.5" y="-282.8" font-family="Handlee" font-size="14.00">, </text>
<text text-anchor="start" x="884.5" y="-282.8" font-family="Handlee" font-weight="bold" font-size="14.00">RDS</text>
<text text-anchor="start" x="916.5" y="-282.8" font-family="Handlee" font-size="14.00"> = </text>
<text text-anchor="start" x="938.5" y="-282.8" font-family="Handlee" font-weight="bold" font-size="14.00" fill="GREEN">size</text>
</g>
<!-- will_write_to_ram&#45;&gt;will_write_to_ram_rows -->
<g id="edge2" class="edge">
<title>will_write_to_ram&#45;&gt;will_write_to_ram_rows</title>
<path fill="none" stroke="black" d="M453.72,-398C456.37,-398 459.01,-398 461.66,-398"/>
<polygon fill="black" stroke="black" points="461.86,-401.5 471.86,-398 461.86,-394.5 461.86,-401.5"/>
</g>
<!-- wont_write_to_ram_rows -->
<g id="node6" class="node">
<title>wont_write_to_ram_rows</title>
<polygon fill="LIGHTGRAY" stroke="transparent" points="480,-4 480,-229 1081,-229 1081,-4 480,-4"/>
<polygon fill="none" stroke="black" points="480.5,-178.5 480.5,-228.5 562.5,-228.5 562.5,-178.5 480.5,-178.5"/>
<text text-anchor="start" x="485.5" y="-199.8" font-family="Handlee" font-size="14.00">Row index</text>
<polygon fill="none" stroke="black" points="562.5,-178.5 562.5,-228.5 653.5,-228.5 653.5,-178.5 562.5,-178.5"/>
<text text-anchor="start" x="567.5" y="-199.8" font-family="Handlee" font-size="14.00">Perspective</text>
<polygon fill="none" stroke="black" points="653.5,-178.5 653.5,-228.5 714.5,-228.5 714.5,-178.5 653.5,-178.5"/>
<text text-anchor="start" x="668.5" y="-199.8" font-family="Handlee" font-size="14.00">Who</text>
<polygon fill="none" stroke="black" points="714.5,-178.5 714.5,-228.5 1000.5,-228.5 1000.5,-178.5 714.5,-178.5"/>
<text text-anchor="start" x="832" y="-199.8" font-family="Handlee" font-size="14.00">Actions</text>
<polygon fill="none" stroke="black" points="1000.5,-203.5 1000.5,-228.5 1081.5,-228.5 1081.5,-203.5 1000.5,-203.5"/>
<text text-anchor="start" x="1021" y="-212.3" font-family="Handlee" font-size="14.00">When</text>
<polygon fill="none" stroke="black" points="1000.5,-178.5 1000.5,-203.5 1043.5,-203.5 1043.5,-178.5 1000.5,-178.5"/>
<text text-anchor="start" x="1005.5" y="-187.3" font-family="Handlee" font-size="14.00">Dom</text>
<polygon fill="none" stroke="black" points="1043.5,-178.5 1043.5,-203.5 1081.5,-203.5 1081.5,-178.5 1043.5,-178.5"/>
<text text-anchor="start" x="1048.5" y="-187.3" font-family="Handlee" font-size="14.00">Sub</text>
<polygon fill="none" stroke="black" points="480.5,-153.5 480.5,-178.5 562.5,-178.5 562.5,-153.5 480.5,-153.5"/>
<text text-anchor="start" x="507.5" y="-162.3" font-family="Handlee" font-size="14.00">i &#45; 1</text>
<polygon fill="none" stroke="black" points="562.5,-153.5 562.5,-178.5 653.5,-178.5 653.5,-153.5 562.5,-153.5"/>
<text text-anchor="start" x="585.5" y="-162.3" font-family="Handlee" font-size="14.00">STACK</text>
<polygon fill="none" stroke="black" points="653.5,-153.5 653.5,-178.5 714.5,-178.5 714.5,-153.5 653.5,-153.5"/>
<text text-anchor="start" x="659.5" y="-162.3" font-family="Handlee" font-size="14.00">CT = 0</text>
<polygon fill="none" stroke="black" points="714.5,-153.5 714.5,-178.5 1000.5,-178.5 1000.5,-153.5 714.5,-153.5"/>
<text text-anchor="start" x="736" y="-163.3" font-family="Handlee" font-size="14.00">excavate stack items: </text>
<text text-anchor="start" x="892" y="-163.3" font-family="Handlee" font-weight="bold" font-size="14.00" fill="BLUE">offset</text>
<text text-anchor="start" x="938" y="-163.3" font-family="Handlee" font-size="14.00">, </text>
<text text-anchor="start" x="948" y="-163.3" font-family="Handlee" font-weight="bold" font-size="14.00" fill="GREEN">size</text>
<polygon fill="none" stroke="black" points="480.5,-128.5 480.5,-153.5 562.5,-153.5 562.5,-128.5 480.5,-128.5"/>
<text text-anchor="start" x="519.5" y="-137.3" font-family="Handlee" font-size="14.00">i</text>
<polygon fill="salmon" stroke="transparent" points="562.5,-128.5 562.5,-153.5 653.5,-153.5 653.5,-128.5 562.5,-128.5"/>
<polygon fill="none" stroke="black" points="562.5,-128.5 562.5,-153.5 653.5,-153.5 653.5,-128.5 562.5,-128.5"/>
<text text-anchor="start" x="593" y="-137.3" font-family="Handlee" font-size="14.00">SCN</text>
<polygon fill="salmon" stroke="transparent" points="653.5,-128.5 653.5,-153.5 1000.5,-153.5 1000.5,-128.5 653.5,-128.5"/>
<polygon fill="none" stroke="black" points="653.5,-128.5 653.5,-153.5 1000.5,-153.5 1000.5,-128.5 653.5,-128.5"/>
<text text-anchor="start" x="658.5" y="-137.3" font-family="Handlee" font-size="14.00">RETURN/MESSAGE_CALL_WONT_WRITE_TO_RAM</text>
<polygon fill="none" stroke="black" points="480.5,-103.5 480.5,-128.5 562.5,-128.5 562.5,-103.5 480.5,-103.5"/>
<text text-anchor="start" x="504.5" y="-112.3" font-family="Handlee" font-size="14.00">i + 1</text>
<polygon fill="none" stroke="black" points="562.5,-103.5 562.5,-128.5 653.5,-128.5 653.5,-103.5 562.5,-103.5"/>
<text text-anchor="start" x="592" y="-112.3" font-family="Handlee" font-size="14.00">CON</text>
<polygon fill="none" stroke="black" points="653.5,-103.5 653.5,-128.5 714.5,-128.5 714.5,-103.5 653.5,-103.5"/>
<text text-anchor="start" x="659" y="-112.3" font-family="Handlee" font-size="14.00">current</text>
<polygon fill="none" stroke="black" points="714.5,-103.5 714.5,-128.5 1000.5,-128.5 1000.5,-103.5 714.5,-103.5"/>
<text text-anchor="start" x="720" y="-113.3" font-family="Handlee" font-size="14.00">read: </text>
<text text-anchor="start" x="760" y="-113.3" font-family="Handlee" font-weight="bold" font-size="14.00">I</text>
<text text-anchor="start" x="766" y="-113.3" font-family="Handlee" font-weight="bold" baseline-shift="sub" font-size="14.00">a</text>
<text text-anchor="start" x="774" y="-113.3" font-family="Handlee" font-size="14.00"> , </text>
<text text-anchor="start" x="788" y="-113.3" font-family="Handlee" font-weight="bold" font-size="14.00">DEPLOYS</text>
<text text-anchor="start" x="860" y="-113.3" font-family="Handlee" font-size="14.00"> = </text>
<text text-anchor="start" x="882" y="-113.3" font-family="Handlee" font-weight="bold" font-size="14.00">0</text>
<text text-anchor="start" x="892" y="-113.3" font-family="Handlee" font-size="14.00">, </text>
<text text-anchor="start" x="902" y="-113.3" font-family="Handlee" font-weight="bold" font-size="14.00">R@O</text>
<text text-anchor="start" x="939" y="-113.3" font-family="Handlee" font-size="14.00">, </text>
<text text-anchor="start" x="949" y="-113.3" font-family="Handlee" font-weight="bold" font-size="14.00">R@C</text>
<text text-anchor="start" x="985" y="-113.3" font-family="Handlee" font-size="14.00">, </text>
<polygon fill="none" stroke="black" points="480.5,-28.5 480.5,-103.5 562.5,-103.5 562.5,-28.5 480.5,-28.5"/>
<text text-anchor="start" x="504.5" y="-62.3" font-family="Handlee" font-size="14.00">i + 2</text>
<polygon fill="none" stroke="black" points="562.5,-28.5 562.5,-103.5 653.5,-103.5 653.5,-28.5 562.5,-28.5"/>
<text text-anchor="start" x="590" y="-62.3" font-family="Handlee" font-size="14.00">MISC</text>
<polygon fill="none" stroke="black" points="653.5,-28.5 653.5,-103.5 714.5,-103.5 714.5,-28.5 653.5,-28.5"/>
<polygon fill="none" stroke="black" points="714.5,-78.5 714.5,-103.5 1000.5,-103.5 1000.5,-78.5 714.5,-78.5"/>
<text text-anchor="start" x="775.5" y="-88.3" font-family="Handlee" font-size="14.00">MXP🏴 = </text>
<text text-anchor="start" x="844.5" y="-88.3" font-family="Handlee" font-weight="bold" font-size="14.00">1</text>
<text text-anchor="start" x="854.5" y="-88.3" font-family="Handlee" font-size="14.00">, MXPX = </text>
<text text-anchor="start" x="924.5" y="-88.3" font-family="Handlee" font-weight="bold" font-size="14.00" fill="GREEN">0</text>
<text text-anchor="start" x="934.5" y="-88.3" font-family="Handlee" font-size="14.00"> </text>
<polygon fill="WHITE" stroke="transparent" points="714.5,-53.5 714.5,-78.5 1000.5,-78.5 1000.5,-53.5 714.5,-53.5"/>
<polygon fill="none" stroke="black" points="714.5,-53.5 714.5,-78.5 1000.5,-78.5 1000.5,-53.5 714.5,-53.5"/>
<text text-anchor="start" x="748" y="-63.3" font-family="Handlee" font-size="14.00">MMU🏴 = </text>
<text text-anchor="start" x="821" y="-63.3" font-family="Handlee" font-weight="bold" font-size="14.00" fill="SALMON">trigger_MMU (=0)</text>
<text text-anchor="start" x="962" y="-63.3" font-family="Handlee" font-size="14.00"> </text>
<polygon fill="none" stroke="black" points="714.5,-28.5 714.5,-53.5 1000.5,-53.5 1000.5,-28.5 714.5,-28.5"/>
<text text-anchor="start" x="740" y="-38.3" font-family="Handlee" font-size="14.00">OOB🏴 = </text>
<text text-anchor="start" x="811" y="-38.3" font-family="Handlee" font-weight="bold" font-size="14.00">DEPLOYS</text>
<text text-anchor="start" x="883" y="-38.3" font-family="Handlee" font-size="14.00">, EVENT = </text>
<text text-anchor="start" x="960" y="-38.3" font-family="Handlee" font-weight="bold" font-size="14.00" fill="GREEN">0</text>
<text text-anchor="start" x="970" y="-38.3" font-family="Handlee" font-size="14.00"> </text>
<polygon fill="WHITE" stroke="transparent" points="480.5,-3.5 480.5,-28.5 562.5,-28.5 562.5,-3.5 480.5,-3.5"/>
<polygon fill="none" stroke="black" points="480.5,-3.5 480.5,-28.5 562.5,-28.5 562.5,-3.5 480.5,-3.5"/>
<text text-anchor="start" x="504.5" y="-12.3" font-family="Handlee" font-size="14.00">i + 3</text>
<polygon fill="WHITE" stroke="transparent" points="562.5,-3.5 562.5,-28.5 653.5,-28.5 653.5,-3.5 562.5,-3.5"/>
<polygon fill="none" stroke="black" points="562.5,-3.5 562.5,-28.5 653.5,-28.5 653.5,-3.5 562.5,-3.5"/>
<text text-anchor="start" x="592" y="-12.3" font-family="Handlee" font-size="14.00">CON</text>
<polygon fill="YELLOW" stroke="transparent" points="653.5,-3.5 653.5,-28.5 714.5,-28.5 714.5,-3.5 653.5,-3.5"/>
<polygon fill="none" stroke="black" points="653.5,-3.5 653.5,-28.5 714.5,-28.5 714.5,-3.5 653.5,-3.5"/>
<text text-anchor="start" x="661" y="-12.3" font-family="Handlee" font-size="14.00">parent</text>
<polygon fill="WHITE" stroke="transparent" points="714.5,-3.5 714.5,-28.5 1000.5,-28.5 1000.5,-3.5 714.5,-3.5"/>
<polygon fill="none" stroke="black" points="714.5,-3.5 714.5,-28.5 1000.5,-28.5 1000.5,-3.5 714.5,-3.5"/>
<text text-anchor="start" x="744" y="-13.3" font-family="Handlee" font-size="14.00">RD: </text>
<text text-anchor="start" x="774" y="-13.3" font-family="Handlee" font-weight="bold" font-size="14.00">RDO</text>
<text text-anchor="start" x="808" y="-13.3" font-family="Handlee" font-size="14.00"> = </text>
<text text-anchor="start" x="830" y="-13.3" font-family="Handlee" font-weight="bold" font-size="14.00" fill="BLUE">offset</text>
<text text-anchor="start" x="876" y="-13.3" font-family="Handlee" font-size="14.00">, </text>
<text text-anchor="start" x="886" y="-13.3" font-family="Handlee" font-weight="bold" font-size="14.00">RDS</text>
<text text-anchor="start" x="918" y="-13.3" font-family="Handlee" font-size="14.00"> = </text>
<text text-anchor="start" x="940" y="-13.3" font-family="Handlee" font-weight="bold" font-size="14.00" fill="GREEN">size</text>
</g>
<!-- wont_write_to_ram&#45;&gt;wont_write_to_ram_rows -->
<g id="edge4" class="edge">
<title>wont_write_to_ram&#45;&gt;wont_write_to_ram_rows</title>
<path fill="none" stroke="black" d="M453.58,-116.5C456.23,-116.5 458.89,-116.5 461.54,-116.5"/>
<polygon fill="black" stroke="black" points="461.78,-120 471.78,-116.5 461.78,-113 461.78,-120"/>
</g>
</g>
</svg>
