<?xml version="1.0" encoding="UTF-8" standalone="no"?>
<!DOCTYPE svg PUBLIC "-//W3C//DTD SVG 1.1//EN"
 "http://www.w3.org/Graphics/SVG/1.1/DTD/svg11.dtd">
<!-- Generated by graphviz version 2.43.0 (0)
 -->
<!-- Title: G Pages: 1 -->
<svg width="1341pt" height="961pt"
 viewBox="0.00 0.00 1341.00 961.00" xmlns="http://www.w3.org/2000/svg" xmlns:xlink="http://www.w3.org/1999/xlink">
<g id="graph0" class="graph" transform="scale(1 1) rotate(0) translate(4 957)">
<title>G</title>
<polygon fill="white" stroke="transparent" points="-4,4 -4,-957 1337,-957 1337,4 -4,4"/>
<!-- failure -->
<g id="node1" class="node">
<title>failure</title>
<polygon fill="none" stroke="black" points="8.5,-923.5 8.5,-948.5 90.5,-948.5 90.5,-923.5 8.5,-923.5"/>
<text text-anchor="start" x="13.5" y="-932.3" font-family="Handlee" font-size="14.00">Row index</text>
<polygon fill="none" stroke="black" points="90.5,-923.5 90.5,-948.5 181.5,-948.5 181.5,-923.5 90.5,-923.5"/>
<text text-anchor="start" x="95.5" y="-932.3" font-family="Handlee" font-size="14.00">Perspective</text>
<polygon fill="none" stroke="black" points="181.5,-923.5 181.5,-948.5 1254.5,-948.5 1254.5,-923.5 181.5,-923.5"/>
<text text-anchor="start" x="692.5" y="-932.3" font-family="Handlee" font-size="14.00">Actions</text>
<polygon fill="none" stroke="black" points="8.5,-898.5 8.5,-923.5 90.5,-923.5 90.5,-898.5 8.5,-898.5"/>
<text text-anchor="start" x="47.5" y="-907.3" font-family="Handlee" font-size="14.00">i</text>
<polygon fill="salmon" stroke="transparent" points="90.5,-898.5 90.5,-923.5 181.5,-923.5 181.5,-898.5 90.5,-898.5"/>
<polygon fill="none" stroke="black" points="90.5,-898.5 90.5,-923.5 181.5,-923.5 181.5,-898.5 90.5,-898.5"/>
<text text-anchor="start" x="116.5" y="-907.3" font-family="Handlee" font-size="14.00">SCEN</text>
<polygon fill="salmon" stroke="transparent" points="181.5,-898.5 181.5,-923.5 1254.5,-923.5 1254.5,-898.5 181.5,-898.5"/>
<polygon fill="none" stroke="black" points="181.5,-898.5 181.5,-923.5 1254.5,-923.5 1254.5,-898.5 181.5,-898.5"/>
<text text-anchor="start" x="596.5" y="-907.3" font-family="Handlee" font-size="14.00">SCEN/PRC = 1, SCEN/MODEXP = 1</text>
<polygon fill="none" stroke="black" points="8.5,-762.5 8.5,-898.5 90.5,-898.5 90.5,-762.5 8.5,-762.5"/>
<text text-anchor="start" x="32.5" y="-826.8" font-family="Handlee" font-size="14.00">i + 1</text>
<polygon fill="none" stroke="black" points="90.5,-762.5 90.5,-898.5 181.5,-898.5 181.5,-762.5 90.5,-762.5"/>
<text text-anchor="start" x="118" y="-826.8" font-family="Handlee" font-size="14.00">MISC</text>
<polygon fill="none" stroke="black" points="181.5,-762.5 181.5,-898.5 485.5,-898.5 485.5,-762.5 181.5,-762.5"/>
<text text-anchor="start" x="284.5" y="-827.8" font-family="Handlee" font-size="14.00"> </text>
<text text-anchor="start" x="289.5" y="-827.8" font-family="Handlee" font-weight="bold" font-size="14.00">MMU🏴</text>
<text text-anchor="start" x="347.5" y="-827.8" font-family="Handlee" font-size="14.00"> = 0 </text>
<polygon fill="none" stroke="black" points="485.5,-762.5 485.5,-898.5 780.5,-898.5 780.5,-762.5 485.5,-762.5"/>
<text text-anchor="start" x="588.5" y="-827.8" font-family="Handlee" font-size="14.00"> </text>
<text text-anchor="start" x="593.5" y="-827.8" font-family="Handlee" font-weight="bold" font-size="14.00">EXP🏴</text>
<text text-anchor="start" x="642.5" y="-827.8" font-family="Handlee" font-size="14.00"> = 0 </text>
<polygon fill="none" stroke="black" points="780.5,-762.5 780.5,-898.5 1254.5,-898.5 1254.5,-762.5 780.5,-762.5"/>
<text text-anchor="start" x="963.5" y="-883.3" font-family="Handlee" font-size="14.00"> </text>
<text text-anchor="start" x="968.5" y="-883.3" font-family="Handlee" font-weight="bold" font-size="14.00">OOB🏴</text>
<text text-anchor="start" x="1020.5" y="-883.3" font-family="Handlee" font-size="14.00"> = </text>
<text text-anchor="start" x="1042.5" y="-883.3" font-family="Handlee" font-weight="bold" font-size="14.00">1</text>
<text text-anchor="start" x="1052.5" y="-883.3" font-family="Handlee" font-size="14.00"> &#160;&#160;&#160;</text>
<text text-anchor="start" x="912" y="-869.3" font-family="Handlee" font-size="14.00"> OOB_INST = MODEXP_cds &#160;&#160;&#160;&#160;</text>
<text text-anchor="start" x="843" y="-855.3" font-family="Handlee" font-size="14.00"> </text>
<text text-anchor="start" x="848" y="-855.3" font-family="Handlee" font-weight="bold" font-size="14.00">cds</text>
<text text-anchor="start" x="875" y="-855.3" font-family="Handlee" font-size="14.00"> &#160;&#160;&#160;</text>
<text text-anchor="start" x="843" y="-841.3" font-family="Handlee" font-size="14.00"> </text>
<text text-anchor="start" x="848" y="-841.3" font-family="Handlee" font-weight="bold" font-size="14.00" fill="GREEN">extract_raw_bbs</text>
<text text-anchor="start" x="976" y="-841.3" font-family="Handlee" font-weight="bold" font-size="14.00"> </text>
<text text-anchor="start" x="981" y="-841.3" font-family="Handlee" font-size="14.00"> = [ </text>
<text text-anchor="start" x="1012" y="-841.3" font-family="Handlee" font-weight="bold" font-size="14.00">cds</text>
<text text-anchor="start" x="1039" y="-841.3" font-family="Handlee" font-size="14.00"> &gt; 0 ] &#160;&#160;&#160;</text>
<text text-anchor="start" x="843" y="-827.3" font-family="Handlee" font-size="14.00"> </text>
<text text-anchor="start" x="848" y="-827.3" font-family="Handlee" font-weight="bold" font-size="14.00" fill="GREEN">extract_raw_ebs</text>
<text text-anchor="start" x="976" y="-827.3" font-family="Handlee" font-weight="bold" font-size="14.00"> </text>
<text text-anchor="start" x="981" y="-827.3" font-family="Handlee" font-size="14.00"> = [ </text>
<text text-anchor="start" x="1012" y="-827.3" font-family="Handlee" font-weight="bold" font-size="14.00">cds</text>
<text text-anchor="start" x="1039" y="-827.3" font-family="Handlee" font-size="14.00"> &gt; 32 ] &#160;&#160;&#160;</text>
<text text-anchor="start" x="843" y="-813.3" font-family="Handlee" font-size="14.00"> </text>
<text text-anchor="start" x="848" y="-813.3" font-family="Handlee" font-weight="bold" font-size="14.00" fill="GREEN">extract_raw_mbs</text>
<text text-anchor="start" x="981" y="-813.3" font-family="Handlee" font-weight="bold" font-size="14.00"> </text>
<text text-anchor="start" x="986" y="-813.3" font-family="Handlee" font-size="14.00"> = [ </text>
<text text-anchor="start" x="1017" y="-813.3" font-family="Handlee" font-weight="bold" font-size="14.00">cds</text>
<text text-anchor="start" x="1044" y="-813.3" font-family="Handlee" font-size="14.00"> &gt; 64 ] &#160;&#160;&#160;</text>
<text text-anchor="start" x="843" y="-799.3" font-family="Handlee" font-size="14.00"> </text>
<text text-anchor="start" x="848" y="-799.3" font-family="Handlee" font-weight="bold" font-size="14.00" fill="GREEN">trim_raw_bbs</text>
<text text-anchor="start" x="951" y="-799.3" font-family="Handlee" font-weight="bold" font-size="14.00"> </text>
<text text-anchor="start" x="956" y="-799.3" font-family="Handlee" font-size="14.00"> = [ </text>
<text text-anchor="start" x="987" y="-799.3" font-family="Handlee" font-weight="bold" font-size="14.00">cds</text>
<text text-anchor="start" x="1014" y="-799.3" font-family="Handlee" font-size="14.00"> &gt; 0 &#160;] ∧ [ </text>
<text text-anchor="start" x="1088" y="-799.3" font-family="Handlee" font-weight="bold" font-size="14.00">cds</text>
<text text-anchor="start" x="1115" y="-799.3" font-family="Handlee" font-size="14.00"> &lt; 32 &#160;] &#160;&#160;&#160;</text>
<text text-anchor="start" x="843" y="-785.3" font-family="Handlee" font-size="14.00"> </text>
<text text-anchor="start" x="848" y="-785.3" font-family="Handlee" font-weight="bold" font-size="14.00" fill="GREEN">trim_raw_ebs</text>
<text text-anchor="start" x="951" y="-785.3" font-family="Handlee" font-weight="bold" font-size="14.00"> </text>
<text text-anchor="start" x="956" y="-785.3" font-family="Handlee" font-size="14.00"> = [ </text>
<text text-anchor="start" x="987" y="-785.3" font-family="Handlee" font-weight="bold" font-size="14.00">cds</text>
<text text-anchor="start" x="1014" y="-785.3" font-family="Handlee" font-size="14.00"> &gt; 32 ] ∧ [ </text>
<text text-anchor="start" x="1093" y="-785.3" font-family="Handlee" font-weight="bold" font-size="14.00">cds</text>
<text text-anchor="start" x="1120" y="-785.3" font-family="Handlee" font-size="14.00"> &lt; 64 ] &#160;&#160;&#160;</text>
<text text-anchor="start" x="843" y="-771.3" font-family="Handlee" font-size="14.00"> </text>
<text text-anchor="start" x="848" y="-771.3" font-family="Handlee" font-weight="bold" font-size="14.00" fill="GREEN">trim_raw_mbs</text>
<text text-anchor="start" x="956" y="-771.3" font-family="Handlee" font-weight="bold" font-size="14.00"> </text>
<text text-anchor="start" x="961" y="-771.3" font-family="Handlee" font-size="14.00"> = [ </text>
<text text-anchor="start" x="992" y="-771.3" font-family="Handlee" font-weight="bold" font-size="14.00">cds</text>
<text text-anchor="start" x="1019" y="-771.3" font-family="Handlee" font-size="14.00"> &gt; 64 ] ∧ [ </text>
<text text-anchor="start" x="1098" y="-771.3" font-family="Handlee" font-weight="bold" font-size="14.00">cds</text>
<text text-anchor="start" x="1125" y="-771.3" font-family="Handlee" font-size="14.00"> &lt; 96 ] &#160;&#160;&#160;</text>
<polygon fill="none" stroke="black" points="8.5,-696.5 8.5,-762.5 90.5,-762.5 90.5,-696.5 8.5,-696.5"/>
<text text-anchor="start" x="32.5" y="-725.8" font-family="Handlee" font-size="14.00">i + 1</text>
<polygon fill="none" stroke="black" points="90.5,-696.5 90.5,-762.5 181.5,-762.5 181.5,-696.5 90.5,-696.5"/>
<text text-anchor="start" x="118" y="-725.8" font-family="Handlee" font-size="14.00">MISC</text>
<polygon fill="none" stroke="black" points="181.5,-696.5 181.5,-762.5 485.5,-762.5 485.5,-696.5 181.5,-696.5"/>
<text text-anchor="start" x="224.5" y="-740.3" font-family="Handlee" font-size="14.00"> </text>
<text text-anchor="start" x="229.5" y="-740.3" font-family="Handlee" font-weight="bold" font-size="14.00">MMU🏴</text>
<text text-anchor="start" x="287.5" y="-740.3" font-family="Handlee" font-size="14.00"> = </text>
<text text-anchor="start" x="309.5" y="-740.3" font-family="Handlee" font-weight="bold" font-size="14.00">extract_raw_bbs</text>
<text text-anchor="start" x="437.5" y="-740.3" font-family="Handlee" font-size="14.00"> </text>
<text text-anchor="start" x="256.5" y="-726.3" font-family="Handlee" font-size="14.00"> MMU_INST = MLOAD </text>
<text text-anchor="start" x="284.5" y="-712.3" font-family="Handlee" font-size="14.00"> offset = </text>
<text text-anchor="start" x="349.5" y="-712.3" font-family="Handlee" font-weight="bold" font-size="14.00">cdo</text>
<text text-anchor="start" x="377.5" y="-712.3" font-family="Handlee" font-size="14.00"> </text>
<polygon fill="none" stroke="black" points="485.5,-696.5 485.5,-762.5 780.5,-762.5 780.5,-696.5 485.5,-696.5"/>
<text text-anchor="start" x="541" y="-733.3" font-family="Handlee" font-size="14.00"> </text>
<text text-anchor="start" x="546" y="-733.3" font-family="Handlee" font-weight="bold" font-size="14.00">EXP🏴</text>
<text text-anchor="start" x="595" y="-733.3" font-family="Handlee" font-size="14.00"> = </text>
<text text-anchor="start" x="617" y="-733.3" font-family="Handlee" font-weight="bold" font-size="14.00">trim_raw_bbs</text>
<text text-anchor="start" x="720" y="-733.3" font-family="Handlee" font-size="14.00"> </text>
<text text-anchor="start" x="527" y="-719.3" font-family="Handlee" font-size="14.00"> EXP_INST = trimBytesBeyond</text>
<polygon fill="none" stroke="black" points="780.5,-696.5 780.5,-762.5 1254.5,-762.5 1254.5,-696.5 780.5,-696.5"/>
<text text-anchor="start" x="904.5" y="-747.3" font-family="Handlee" font-size="14.00"> </text>
<text text-anchor="start" x="909.5" y="-747.3" font-family="Handlee" font-weight="bold" font-size="14.00">OOB🏴</text>
<text text-anchor="start" x="961.5" y="-747.3" font-family="Handlee" font-size="14.00"> = </text>
<text text-anchor="start" x="983.5" y="-747.3" font-family="Handlee" font-weight="bold" font-size="14.00">extract_raw_bbs</text>
<text text-anchor="start" x="1111.5" y="-747.3" font-family="Handlee" font-size="14.00"> &#160;&#160;&#160;</text>
<text text-anchor="start" x="904.5" y="-733.3" font-family="Handlee" font-size="14.00"> </text>
<text text-anchor="start" x="909.5" y="-733.3" font-family="Handlee" font-weight="bold" font-size="14.00">bbs</text>
<text text-anchor="start" x="937.5" y="-733.3" font-family="Handlee" font-size="14.00"> &#160;&#160;&#160;</text>
<text text-anchor="start" x="904.5" y="-719.3" font-family="Handlee" font-size="14.00"> (implicit check) </text>
<text text-anchor="start" x="1019.5" y="-719.3" font-family="Handlee" font-weight="bold" font-size="14.00">bbs</text>
<text text-anchor="start" x="1047.5" y="-719.3" font-family="Handlee" font-size="14.00"> ≤ 512 &#160;&#160;&#160;</text>
<text text-anchor="start" x="907.5" y="-705.3" font-family="Handlee" font-size="14.00"> OOB_INST = MODEXP_base &#160;&#160;&#160;&#160;</text>
<polygon fill="none" stroke="black" points="8.5,-602.5 8.5,-696.5 90.5,-696.5 90.5,-602.5 8.5,-602.5"/>
<text text-anchor="start" x="32.5" y="-645.8" font-family="Handlee" font-size="14.00">i + 2</text>
<polygon fill="none" stroke="black" points="90.5,-602.5 90.5,-696.5 181.5,-696.5 181.5,-602.5 90.5,-602.5"/>
<text text-anchor="start" x="118" y="-645.8" font-family="Handlee" font-size="14.00">MISC</text>
<polygon fill="none" stroke="black" points="181.5,-602.5 181.5,-696.5 485.5,-696.5 485.5,-602.5 181.5,-602.5"/>
<text text-anchor="start" x="224.5" y="-660.3" font-family="Handlee" font-size="14.00"> </text>
<text text-anchor="start" x="229.5" y="-660.3" font-family="Handlee" font-weight="bold" font-size="14.00">MMU🏴</text>
<text text-anchor="start" x="287.5" y="-660.3" font-family="Handlee" font-size="14.00"> = </text>
<text text-anchor="start" x="309.5" y="-660.3" font-family="Handlee" font-weight="bold" font-size="14.00">extract_raw_ebs</text>
<text text-anchor="start" x="437.5" y="-660.3" font-family="Handlee" font-size="14.00"> </text>
<text text-anchor="start" x="256.5" y="-646.3" font-family="Handlee" font-size="14.00"> MMU_INST = MLOAD </text>
<text text-anchor="start" x="264" y="-632.3" font-family="Handlee" font-size="14.00"> offset = </text>
<text text-anchor="start" x="329" y="-632.3" font-family="Handlee" font-weight="bold" font-size="14.00">cdo + 32</text>
<text text-anchor="start" x="398" y="-632.3" font-family="Handlee" font-size="14.00"> </text>
<polygon fill="none" stroke="black" points="485.5,-602.5 485.5,-696.5 780.5,-696.5 780.5,-602.5 485.5,-602.5"/>
<text text-anchor="start" x="541" y="-653.3" font-family="Handlee" font-size="14.00"> </text>
<text text-anchor="start" x="546" y="-653.3" font-family="Handlee" font-weight="bold" font-size="14.00">EXP🏴</text>
<text text-anchor="start" x="595" y="-653.3" font-family="Handlee" font-size="14.00"> = </text>
<text text-anchor="start" x="617" y="-653.3" font-family="Handlee" font-weight="bold" font-size="14.00">trim_raw_ebs</text>
<text text-anchor="start" x="720" y="-653.3" font-family="Handlee" font-size="14.00"> </text>
<text text-anchor="start" x="527" y="-639.3" font-family="Handlee" font-size="14.00"> EXP_INST = trimBytesBeyond</text>
<polygon fill="none" stroke="black" points="780.5,-602.5 780.5,-696.5 1254.5,-696.5 1254.5,-602.5 780.5,-602.5"/>
<text text-anchor="start" x="904.5" y="-681.3" font-family="Handlee" font-size="14.00"> </text>
<text text-anchor="start" x="909.5" y="-681.3" font-family="Handlee" font-weight="bold" font-size="14.00">OOB🏴</text>
<text text-anchor="start" x="961.5" y="-681.3" font-family="Handlee" font-size="14.00"> = </text>
<text text-anchor="start" x="983.5" y="-681.3" font-family="Handlee" font-weight="bold" font-size="14.00">extract_raw_ebs</text>
<text text-anchor="start" x="1111.5" y="-681.3" font-family="Handlee" font-size="14.00"> &#160;&#160;&#160;</text>
<text text-anchor="start" x="893.5" y="-667.3" font-family="Handlee" font-weight="bold" font-size="14.00">ebs</text>
<text text-anchor="start" x="921.5" y="-667.3" font-family="Handlee" font-size="14.00"> &#160;&#160;&#160;</text>
<text text-anchor="start" x="893.5" y="-653.3" font-family="Handlee" font-size="14.00">(implicit check) </text>
<text text-anchor="start" x="1004.5" y="-653.3" font-family="Handlee" font-weight="bold" font-size="14.00">ebs</text>
<text text-anchor="start" x="1032.5" y="-653.3" font-family="Handlee" font-size="14.00"> ≤ 512 &#160;&#160;&#160;</text>
<text text-anchor="start" x="893.5" y="-639.3" font-family="Handlee" font-size="14.00">OOB_INST = MODEXP_exponent &#160;&#160;&#160;&#160;</text>
<text text-anchor="start" x="893.5" y="-625.3" font-family="Handlee" font-weight="bold" font-size="14.00" fill="green">diff </text>
<text text-anchor="start" x="924.5" y="-625.3" font-family="Handlee" font-size="14.00"> := 0 ∨ [ebs &#45; 32] &#160;&#160;&#160;</text>
<text text-anchor="start" x="912.5" y="-611.3" font-family="Handlee" font-weight="bold" font-size="14.00" fill="green">n_ebs_bytes &#160;</text>
<text text-anchor="start" x="1016.5" y="-611.3" font-family="Handlee" font-size="14.00"> := 32 ∧ ebs &#160;&#160;&#160;</text>
<polygon fill="none" stroke="black" points="8.5,-522.5 8.5,-602.5 90.5,-602.5 90.5,-522.5 8.5,-522.5"/>
<text text-anchor="start" x="32.5" y="-558.8" font-family="Handlee" font-size="14.00">i + 3</text>
<polygon fill="none" stroke="black" points="90.5,-522.5 90.5,-602.5 181.5,-602.5 181.5,-522.5 90.5,-522.5"/>
<text text-anchor="start" x="118" y="-558.8" font-family="Handlee" font-size="14.00">MISC</text>
<polygon fill="none" stroke="black" points="181.5,-522.5 181.5,-602.5 485.5,-602.5 485.5,-522.5 181.5,-522.5"/>
<text text-anchor="start" x="222" y="-573.3" font-family="Handlee" font-size="14.00"> </text>
<text text-anchor="start" x="227" y="-573.3" font-family="Handlee" font-weight="bold" font-size="14.00">MMU🏴</text>
<text text-anchor="start" x="285" y="-573.3" font-family="Handlee" font-size="14.00"> = </text>
<text text-anchor="start" x="307" y="-573.3" font-family="Handlee" font-weight="bold" font-size="14.00">extract_raw_mbs</text>
<text text-anchor="start" x="440" y="-573.3" font-family="Handlee" font-size="14.00"> </text>
<text text-anchor="start" x="256.5" y="-559.3" font-family="Handlee" font-size="14.00"> MMU_INST = MLOAD </text>
<text text-anchor="start" x="264" y="-545.3" font-family="Handlee" font-size="14.00"> offset = </text>
<text text-anchor="start" x="329" y="-545.3" font-family="Handlee" font-weight="bold" font-size="14.00">cdo + 64</text>
<text text-anchor="start" x="398" y="-545.3" font-family="Handlee" font-size="14.00"> </text>
<polygon fill="none" stroke="black" points="485.5,-522.5 485.5,-602.5 780.5,-602.5 780.5,-522.5 485.5,-522.5"/>
<text text-anchor="start" x="538.5" y="-566.3" font-family="Handlee" font-size="14.00"> </text>
<text text-anchor="start" x="543.5" y="-566.3" font-family="Handlee" font-weight="bold" font-size="14.00">EXP🏴</text>
<text text-anchor="start" x="592.5" y="-566.3" font-family="Handlee" font-size="14.00"> = </text>
<text text-anchor="start" x="614.5" y="-566.3" font-family="Handlee" font-weight="bold" font-size="14.00">trim_raw_mbs</text>
<text text-anchor="start" x="722.5" y="-566.3" font-family="Handlee" font-size="14.00"> </text>
<text text-anchor="start" x="527" y="-552.3" font-family="Handlee" font-size="14.00"> EXP_INST = trimBytesBeyond</text>
<polygon fill="none" stroke="black" points="780.5,-522.5 780.5,-602.5 1254.5,-602.5 1254.5,-522.5 780.5,-522.5"/>
<text text-anchor="start" x="902" y="-587.3" font-family="Handlee" font-size="14.00"> </text>
<text text-anchor="start" x="907" y="-587.3" font-family="Handlee" font-weight="bold" font-size="14.00">OOB🏴</text>
<text text-anchor="start" x="959" y="-587.3" font-family="Handlee" font-size="14.00"> = </text>
<text text-anchor="start" x="981" y="-587.3" font-family="Handlee" font-weight="bold" font-size="14.00">extract_raw_mbs</text>
<text text-anchor="start" x="1114" y="-587.3" font-family="Handlee" font-size="14.00"> &#160;&#160;&#160;</text>
<text text-anchor="start" x="896" y="-573.3" font-family="Handlee" font-weight="bold" font-size="14.00">mbs, bbs</text>
<text text-anchor="start" x="966" y="-573.3" font-family="Handlee" font-size="14.00"> &#160;&#160;&#160;</text>
<text text-anchor="start" x="896" y="-559.3" font-family="Handlee" font-size="14.00">(implicit check) </text>
<text text-anchor="start" x="1007" y="-559.3" font-family="Handlee" font-weight="bold" font-size="14.00">mbs</text>
<text text-anchor="start" x="1040" y="-559.3" font-family="Handlee" font-size="14.00"> ≤ 512 &#160;&#160;&#160;</text>
<text text-anchor="start" x="896" y="-545.3" font-family="Handlee" font-size="14.00">OOB_INST = MODEXP_modulus &#160;&#160;&#160;&#160;</text>
<text text-anchor="start" x="898.5" y="-531.3" font-family="Handlee" font-weight="bold" font-size="14.00" fill="green">max_bbs_mbs</text>
<text text-anchor="start" x="1005.5" y="-531.3" font-family="Handlee" font-size="14.00"> := </text>
<text text-anchor="start" x="1031.5" y="-531.3" font-family="Handlee" font-weight="bold" font-size="14.00">bbs </text>
<text text-anchor="start" x="1064.5" y="-531.3" font-family="Handlee" font-size="14.00"> ∨ </text>
<text text-anchor="start" x="1084.5" y="-531.3" font-family="Handlee" font-weight="bold" font-size="14.00">mbs</text>
<text text-anchor="start" x="1117.5" y="-531.3" font-family="Handlee" font-size="14.00"> &#160;&#160;&#160;</text>
<polygon fill="none" stroke="black" points="8.5,-442.5 8.5,-522.5 90.5,-522.5 90.5,-442.5 8.5,-442.5"/>
<text text-anchor="start" x="32.5" y="-478.8" font-family="Handlee" font-size="14.00">i + 4</text>
<polygon fill="none" stroke="black" points="90.5,-442.5 90.5,-522.5 181.5,-522.5 181.5,-442.5 90.5,-442.5"/>
<text text-anchor="start" x="118" y="-478.8" font-family="Handlee" font-size="14.00">MISC</text>
<polygon fill="none" stroke="black" points="181.5,-442.5 181.5,-522.5 485.5,-522.5 485.5,-442.5 181.5,-442.5"/>
<text text-anchor="start" x="186.5" y="-493.3" font-family="Handlee" font-size="14.00"> </text>
<text text-anchor="start" x="191.5" y="-493.3" font-family="Handlee" font-weight="bold" font-size="14.00">MMU🏴</text>
<text text-anchor="start" x="249.5" y="-493.3" font-family="Handlee" font-size="14.00"> = </text>
<text text-anchor="start" x="271.5" y="-493.3" font-family="Handlee" font-weight="bold" font-size="14.00">extract_raw_leading_word</text>
<text text-anchor="start" x="475.5" y="-493.3" font-family="Handlee" font-size="14.00"> </text>
<text text-anchor="start" x="256.5" y="-479.3" font-family="Handlee" font-size="14.00"> MMU_INST = MLOAD </text>
<text text-anchor="start" x="264" y="-465.3" font-family="Handlee" font-size="14.00"> offset = </text>
<text text-anchor="start" x="329" y="-465.3" font-family="Handlee" font-weight="bold" font-size="14.00">cdo + 96</text>
<text text-anchor="start" x="398" y="-465.3" font-family="Handlee" font-size="14.00"> </text>
<polygon fill="none" stroke="black" points="485.5,-442.5 485.5,-522.5 780.5,-522.5 780.5,-442.5 485.5,-442.5"/>
<text text-anchor="start" x="490.5" y="-486.3" font-family="Handlee" font-size="14.00"> </text>
<text text-anchor="start" x="495.5" y="-486.3" font-family="Handlee" font-weight="bold" font-size="14.00">EXP🏴</text>
<text text-anchor="start" x="544.5" y="-486.3" font-family="Handlee" font-size="14.00"> = </text>
<text text-anchor="start" x="566.5" y="-486.3" font-family="Handlee" font-weight="bold" font-size="14.00">extract_raw_leading_word</text>
<text text-anchor="start" x="770.5" y="-486.3" font-family="Handlee" font-size="14.00"> </text>
<text text-anchor="start" x="497" y="-472.3" font-family="Handlee" font-size="14.00"> EXP_INST = exponentLeadingWordLog</text>
<polygon fill="none" stroke="black" points="780.5,-442.5 780.5,-522.5 1254.5,-522.5 1254.5,-442.5 780.5,-442.5"/>
<text text-anchor="start" x="963.5" y="-507.3" font-family="Handlee" font-size="14.00"> </text>
<text text-anchor="start" x="968.5" y="-507.3" font-family="Handlee" font-weight="bold" font-size="14.00">OOB🏴</text>
<text text-anchor="start" x="1020.5" y="-507.3" font-family="Handlee" font-size="14.00"> = </text>
<text text-anchor="start" x="1042.5" y="-507.3" font-family="Handlee" font-weight="bold" font-size="14.00">1</text>
<text text-anchor="start" x="1052.5" y="-507.3" font-family="Handlee" font-size="14.00"> &#160;&#160;&#160;</text>
<text text-anchor="start" x="785.5" y="-493.3" font-family="Handlee" font-weight="bold" font-size="14.00">cds, ebs, bbs</text>
<text text-anchor="start" x="887.5" y="-493.3" font-family="Handlee" font-size="14.00"> &#160;&#160;&#160;</text>
<text text-anchor="start" x="785.5" y="-479.3" font-family="Handlee" font-size="14.00">OOB_INST = MODEXP_leading &#160;&#160;&#160;</text>
<text text-anchor="start" x="785.5" y="-465.3" font-family="Handlee" font-weight="bold" font-size="14.00" fill="green">n_cds_bytes</text>
<text text-anchor="start" x="879.5" y="-465.3" font-family="Handlee" font-size="14.00"> := 32 ∧ [ 0 ∨ [</text>
<text text-anchor="start" x="986.5" y="-465.3" font-family="Handlee" font-weight="bold" font-size="14.00">cds </text>
<text text-anchor="start" x="1017.5" y="-465.3" font-family="Handlee" font-size="14.00"> &#45; (96 + </text>
<text text-anchor="start" x="1076.5" y="-465.3" font-family="Handlee" font-weight="bold" font-size="14.00">bbs</text>
<text text-anchor="start" x="1104.5" y="-465.3" font-family="Handlee" font-size="14.00">)]] &#160;&#160;&#160;</text>
<text text-anchor="start" x="785.5" y="-451.3" font-family="Handlee" font-weight="bold" font-size="14.00" fill="green">extract_raw_leading_word</text>
<text text-anchor="start" x="989.5" y="-451.3" font-family="Handlee" font-size="14.00"> := [</text>
<text text-anchor="start" x="1020.5" y="-451.3" font-family="Handlee" font-weight="bold" font-size="14.00">cds</text>
<text text-anchor="start" x="1047.5" y="-451.3" font-family="Handlee" font-size="14.00"> &gt; 96 + </text>
<text text-anchor="start" x="1108.5" y="-451.3" font-family="Handlee" font-weight="bold" font-size="14.00">bbs</text>
<text text-anchor="start" x="1136.5" y="-451.3" font-family="Handlee" font-size="14.00">] ∧ [</text>
<text text-anchor="start" x="1167.5" y="-451.3" font-family="Handlee" font-weight="bold" font-size="14.00">ebs</text>
<text text-anchor="start" x="1195.5" y="-451.3" font-family="Handlee" font-size="14.00"> ≠ 0] &#160;&#160;&#160;</text>
<polygon fill="none" stroke="black" points="8.5,-334.5 8.5,-442.5 90.5,-442.5 90.5,-334.5 8.5,-334.5"/>
<text text-anchor="start" x="32.5" y="-384.8" font-family="Handlee" font-size="14.00">i + 5</text>
<polygon fill="none" stroke="black" points="90.5,-334.5 90.5,-442.5 181.5,-442.5 181.5,-334.5 90.5,-334.5"/>
<text text-anchor="start" x="118" y="-384.8" font-family="Handlee" font-size="14.00">MISC</text>
<polygon fill="none" stroke="black" points="181.5,-334.5 181.5,-442.5 485.5,-442.5 485.5,-334.5 181.5,-334.5"/>
<text text-anchor="start" x="283.5" y="-385.8" font-family="Handlee" font-size="14.00"> </text>
<text text-anchor="start" x="288.5" y="-385.8" font-family="Handlee" font-weight="bold" font-size="14.00">MMU🏴</text>
<text text-anchor="start" x="346.5" y="-385.8" font-family="Handlee" font-size="14.00"> = </text>
<text text-anchor="start" x="368.5" y="-385.8" font-family="Handlee" font-weight="bold" font-size="14.00">0</text>
<text text-anchor="start" x="378.5" y="-385.8" font-family="Handlee" font-size="14.00"> </text>
<polygon fill="none" stroke="black" points="485.5,-334.5 485.5,-442.5 780.5,-442.5 780.5,-334.5 485.5,-334.5"/>
<text text-anchor="start" x="587.5" y="-385.8" font-family="Handlee" font-size="14.00"> </text>
<text text-anchor="start" x="592.5" y="-385.8" font-family="Handlee" font-weight="bold" font-size="14.00">EXP🏴</text>
<text text-anchor="start" x="641.5" y="-385.8" font-family="Handlee" font-size="14.00"> = </text>
<text text-anchor="start" x="663.5" y="-385.8" font-family="Handlee" font-weight="bold" font-size="14.00">0</text>
<text text-anchor="start" x="673.5" y="-385.8" font-family="Handlee" font-size="14.00"> </text>
<polygon fill="none" stroke="black" points="780.5,-334.5 780.5,-442.5 1254.5,-442.5 1254.5,-334.5 780.5,-334.5"/>
<text text-anchor="start" x="963.5" y="-427.3" font-family="Handlee" font-size="14.00"> </text>
<text text-anchor="start" x="968.5" y="-427.3" font-family="Handlee" font-weight="bold" font-size="14.00">OOB🏴</text>
<text text-anchor="start" x="1020.5" y="-427.3" font-family="Handlee" font-size="14.00"> = </text>
<text text-anchor="start" x="1042.5" y="-427.3" font-family="Handlee" font-weight="bold" font-size="14.00">1</text>
<text text-anchor="start" x="1052.5" y="-427.3" font-family="Handlee" font-size="14.00"> &#160;&#160;&#160;</text>
<text text-anchor="start" x="785.5" y="-413.3" font-family="Handlee" font-weight="bold" font-size="14.00">call_gas, rem_gas, log(E)_approx, max_bbs_mbs, r@c</text>
<text text-anchor="start" x="1196.5" y="-413.3" font-family="Handlee" font-size="14.00"> &#160;&#160;&#160;</text>
<text text-anchor="start" x="785.5" y="-399.3" font-family="Handlee" font-size="14.00">(implicit check) </text>
<text text-anchor="start" x="896.5" y="-399.3" font-family="Handlee" font-weight="bold" font-size="14.00">mbs</text>
<text text-anchor="start" x="929.5" y="-399.3" font-family="Handlee" font-size="14.00"> ≤ 512 &#160;&#160;&#160;</text>
<text text-anchor="start" x="785.5" y="-385.3" font-family="Handlee" font-size="14.00">OOB_INST = MODEXP_pricing &#160;&#160;&#160;&#160;</text>
<text text-anchor="start" x="785.5" y="-371.3" font-family="Handlee" font-weight="bold" font-size="14.00" fill="green">insufficient_gas</text>
<text text-anchor="start" x="907.5" y="-371.3" font-family="Handlee" font-size="14.00"> = </text>
<text text-anchor="start" x="929.5" y="-371.3" font-family="Handlee" font-weight="bold" font-size="14.00" fill="red">1</text>
<text text-anchor="start" x="939.5" y="-371.3" font-family="Handlee" font-size="14.00"> &#160;&#160;&#160;</text>
<text text-anchor="start" x="785.5" y="-357.3" font-family="Handlee" font-weight="bold" font-size="14.00" fill="green">[r@c ≠ 0]</text>
<text text-anchor="start" x="859.5" y="-357.3" font-family="Handlee" font-size="14.00"> &#160;&#160;&#160;</text>
<text text-anchor="start" x="785.5" y="-343.3" font-family="Handlee" font-weight="bold" font-size="14.00" fill="green">extract_raw_leading_word</text>
<text text-anchor="start" x="989.5" y="-343.3" font-family="Handlee" font-size="14.00"> := [</text>
<text text-anchor="start" x="1020.5" y="-343.3" font-family="Handlee" font-weight="bold" font-size="14.00">cds</text>
<text text-anchor="start" x="1047.5" y="-343.3" font-family="Handlee" font-size="14.00"> &gt; 96 + </text>
<text text-anchor="start" x="1108.5" y="-343.3" font-family="Handlee" font-weight="bold" font-size="14.00">bbs</text>
<text text-anchor="start" x="1136.5" y="-343.3" font-family="Handlee" font-size="14.00">] ∧ [</text>
<text text-anchor="start" x="1167.5" y="-343.3" font-family="Handlee" font-weight="bold" font-size="14.00">ebs</text>
<text text-anchor="start" x="1195.5" y="-343.3" font-family="Handlee" font-size="14.00"> ≠ 0] &#160;&#160;&#160;</text>
<polygon fill="none" stroke="black" points="8.5,-309.5 8.5,-334.5 90.5,-334.5 90.5,-309.5 8.5,-309.5"/>
<text text-anchor="start" x="32.5" y="-318.3" font-family="Handlee" font-size="14.00">i + 1</text>
<polygon fill="none" stroke="black" points="90.5,-309.5 90.5,-334.5 181.5,-334.5 181.5,-309.5 90.5,-309.5"/>
<text text-anchor="start" x="118" y="-318.3" font-family="Handlee" font-size="14.00">MISC</text>
<polygon fill="none" stroke="black" points="181.5,-309.5 181.5,-334.5 485.5,-334.5 485.5,-309.5 181.5,-309.5"/>
<text text-anchor="start" x="283.5" y="-319.3" font-family="Handlee" font-size="14.00"> </text>
<text text-anchor="start" x="288.5" y="-319.3" font-family="Handlee" font-weight="bold" font-size="14.00">MMU🏴</text>
<text text-anchor="start" x="346.5" y="-319.3" font-family="Handlee" font-size="14.00"> = </text>
<text text-anchor="start" x="368.5" y="-319.3" font-family="Handlee" font-weight="bold" font-size="14.00">1</text>
<text text-anchor="start" x="378.5" y="-319.3" font-family="Handlee" font-size="14.00"> </text>
<polygon fill="none" stroke="black" points="485.5,-309.5 485.5,-334.5 780.5,-334.5 780.5,-309.5 485.5,-309.5"/>
<text text-anchor="start" x="587.5" y="-319.3" font-family="Handlee" font-size="14.00"> </text>
<text text-anchor="start" x="592.5" y="-319.3" font-family="Handlee" font-weight="bold" font-size="14.00">EXP🏴</text>
<text text-anchor="start" x="641.5" y="-319.3" font-family="Handlee" font-size="14.00"> = </text>
<text text-anchor="start" x="663.5" y="-319.3" font-family="Handlee" font-weight="bold" font-size="14.00">1</text>
<text text-anchor="start" x="673.5" y="-319.3" font-family="Handlee" font-size="14.00"> </text>
<polygon fill="none" stroke="black" points="780.5,-309.5 780.5,-334.5 1254.5,-334.5 1254.5,-309.5 780.5,-309.5"/>
<text text-anchor="start" x="970.5" y="-319.3" font-family="Handlee" font-size="14.00"> </text>
<text text-anchor="start" x="975.5" y="-319.3" font-family="Handlee" font-weight="bold" font-size="14.00">OOB🏴</text>
<text text-anchor="start" x="1027.5" y="-319.3" font-family="Handlee" font-size="14.00"> = </text>
<text text-anchor="start" x="1049.5" y="-319.3" font-family="Handlee" font-weight="bold" font-size="14.00">1</text>
<text text-anchor="start" x="1059.5" y="-319.3" font-family="Handlee" font-size="14.00"> </text>
<polygon fill="none" stroke="black" points="8.5,-271.5 8.5,-309.5 90.5,-309.5 90.5,-271.5 8.5,-271.5"/>
<text text-anchor="start" x="35.5" y="-286.8" font-family="Handlee" font-size="14.00">i &#45; 1</text>
<polygon fill="none" stroke="black" points="90.5,-271.5 90.5,-309.5 181.5,-309.5 181.5,-271.5 90.5,-271.5"/>
<text text-anchor="start" x="113.5" y="-286.8" font-family="Handlee" font-size="14.00">STACK</text>
<polygon fill="none" stroke="black" points="181.5,-271.5 181.5,-309.5 485.5,-309.5 485.5,-271.5 181.5,-271.5"/>
<text text-anchor="start" x="309" y="-286.8" font-family="Handlee" font-size="14.00">CT = 1</text>
<polygon fill="none" stroke="black" points="485.5,-271.5 485.5,-309.5 780.5,-309.5 780.5,-271.5 485.5,-271.5"/>
<text text-anchor="start" x="557.5" y="-294.3" font-family="Handlee" font-size="14.00">excavate stack items </text>
<text text-anchor="start" x="576.5" y="-280.3" font-family="Handlee" font-size="14.00"> success bit = </text>
<text text-anchor="start" x="679.5" y="-280.3" font-family="Handlee" font-weight="bold" font-size="14.00">1</text>
<polygon fill="none" stroke="black" points="8.5,-246.5 8.5,-271.5 90.5,-271.5 90.5,-246.5 8.5,-246.5"/>
<text text-anchor="start" x="47.5" y="-255.3" font-family="Handlee" font-size="14.00">i</text>
<polygon fill="salmon" stroke="transparent" points="90.5,-246.5 90.5,-271.5 181.5,-271.5 181.5,-246.5 90.5,-246.5"/>
<polygon fill="none" stroke="black" points="90.5,-246.5 90.5,-271.5 181.5,-271.5 181.5,-246.5 90.5,-246.5"/>
<text text-anchor="start" x="121" y="-255.3" font-family="Handlee" font-size="14.00">SCN</text>
<polygon fill="salmon" stroke="transparent" points="181.5,-246.5 181.5,-271.5 485.5,-271.5 485.5,-246.5 181.5,-246.5"/>
<polygon fill="none" stroke="black" points="181.5,-246.5 181.5,-271.5 485.5,-271.5 485.5,-246.5 181.5,-246.5"/>
<text text-anchor="start" x="316" y="-255.3" font-family="Handlee" font-size="14.00">CALL</text>
<polygon fill="salmon" stroke="transparent" points="485.5,-246.5 485.5,-271.5 780.5,-271.5 780.5,-246.5 485.5,-246.5"/>
<polygon fill="none" stroke="black" points="485.5,-246.5 485.5,-271.5 780.5,-271.5 780.5,-246.5 485.5,-246.5"/>
<text text-anchor="start" x="503.5" y="-255.3" font-family="Handlee" font-size="14.00"> SCEN/CALL/smc_success_will_revert </text>
<polygon fill="none" stroke="black" points="8.5,-221.5 8.5,-246.5 90.5,-246.5 90.5,-221.5 8.5,-221.5"/>
<text text-anchor="start" x="32.5" y="-230.3" font-family="Handlee" font-size="14.00">i + 1</text>
<polygon fill="none" stroke="black" points="90.5,-221.5 90.5,-246.5 181.5,-246.5 181.5,-221.5 90.5,-221.5"/>
<text text-anchor="start" x="120" y="-230.3" font-family="Handlee" font-size="14.00">CON</text>
<polygon fill="none" stroke="black" points="181.5,-221.5 181.5,-246.5 485.5,-246.5 485.5,-221.5 181.5,-221.5"/>
<text text-anchor="start" x="308.5" y="-230.3" font-family="Handlee" font-size="14.00">current</text>
<polygon fill="none" stroke="black" points="485.5,-221.5 485.5,-246.5 780.5,-246.5 780.5,-221.5 485.5,-221.5"/>
<text text-anchor="start" x="530.5" y="-231.3" font-family="Handlee" font-size="14.00">read context; </text>
<text text-anchor="start" x="627.5" y="-231.3" font-family="Handlee" font-weight="bold" font-size="14.00">STATIC🏴</text>
<text text-anchor="start" x="698.5" y="-231.3" font-family="Handlee" font-size="14.00"> = </text>
<text text-anchor="start" x="720.5" y="-231.3" font-family="Handlee" font-weight="bold" font-size="14.00" fill="GREEN">0</text>
<text text-anchor="start" x="730.5" y="-231.3" font-family="Handlee" font-size="14.00"> </text>
<polygon fill="none" stroke="black" points="8.5,-155.5 8.5,-221.5 90.5,-221.5 90.5,-155.5 8.5,-155.5"/>
<text text-anchor="start" x="32.5" y="-184.8" font-family="Handlee" font-size="14.00">i + 2</text>
<polygon fill="none" stroke="black" points="90.5,-155.5 90.5,-221.5 181.5,-221.5 181.5,-155.5 90.5,-155.5"/>
<text text-anchor="start" x="118" y="-184.8" font-family="Handlee" font-size="14.00">MISC</text>
<polygon fill="none" stroke="black" points="181.5,-155.5 181.5,-221.5 485.5,-221.5 485.5,-155.5 181.5,-155.5"/>
<polygon fill="none" stroke="black" points="485.5,-155.5 485.5,-221.5 780.5,-221.5 780.5,-155.5 485.5,-155.5"/>
<text text-anchor="start" x="541.5" y="-206.3" font-family="Handlee" font-size="14.00"> </text>
<text text-anchor="start" x="546.5" y="-206.3" font-family="Handlee" font-weight="bold" font-size="14.00">MXP🏴</text>
<text text-anchor="start" x="599.5" y="-206.3" font-family="Handlee" font-size="14.00"> = </text>
<text text-anchor="start" x="621.5" y="-206.3" font-family="Handlee" font-weight="bold" font-size="14.00">1</text>
<text text-anchor="start" x="631.5" y="-206.3" font-family="Handlee" font-size="14.00">, </text>
<text text-anchor="start" x="641.5" y="-206.3" font-family="Handlee" font-weight="bold" font-size="14.00">MXPX</text>
<text text-anchor="start" x="687.5" y="-206.3" font-family="Handlee" font-size="14.00"> = </text>
<text text-anchor="start" x="709.5" y="-206.3" font-family="Handlee" font-weight="bold" font-size="14.00" fill="GREEN">0</text>
<text text-anchor="start" x="719.5" y="-206.3" font-family="Handlee" font-size="14.00"> </text>
<text text-anchor="start" x="544" y="-192.3" font-family="Handlee" font-size="14.00"> </text>
<text text-anchor="start" x="549" y="-192.3" font-family="Handlee" font-weight="bold" font-size="14.00">STP🏴</text>
<text text-anchor="start" x="597" y="-192.3" font-family="Handlee" font-size="14.00"> = </text>
<text text-anchor="start" x="619" y="-192.3" font-family="Handlee" font-weight="bold" font-size="14.00">1</text>
<text text-anchor="start" x="629" y="-192.3" font-family="Handlee" font-size="14.00">, </text>
<text text-anchor="start" x="639" y="-192.3" font-family="Handlee" font-weight="bold" font-size="14.00">OOGX</text>
<text text-anchor="start" x="685" y="-192.3" font-family="Handlee" font-size="14.00"> = </text>
<text text-anchor="start" x="707" y="-192.3" font-family="Handlee" font-weight="bold" font-size="14.00" fill="GREEN">0</text>
<text text-anchor="start" x="717" y="-192.3" font-family="Handlee" font-size="14.00"> </text>
<text text-anchor="start" x="510" y="-178.3" font-family="Handlee" font-size="14.00"> </text>
<text text-anchor="start" x="515" y="-178.3" font-family="Handlee" font-weight="bold" font-size="14.00">OOB🏴</text>
<text text-anchor="start" x="567" y="-178.3" font-family="Handlee" font-size="14.00"> = </text>
<text text-anchor="start" x="589" y="-178.3" font-family="Handlee" font-weight="bold" font-size="14.00">1</text>
<text text-anchor="start" x="599" y="-178.3" font-family="Handlee" font-size="14.00">, </text>
<text text-anchor="start" x="609" y="-178.3" font-family="Handlee" font-weight="bold" font-size="14.00">OOB_EVENT_1</text>
<text text-anchor="start" x="719" y="-178.3" font-family="Handlee" font-size="14.00"> = </text>
<text text-anchor="start" x="741" y="-178.3" font-family="Handlee" font-weight="bold" font-size="14.00" fill="GREEN">0</text>
<text text-anchor="start" x="751" y="-178.3" font-family="Handlee" font-size="14.00"> </text>
<text text-anchor="start" x="547.5" y="-164.3" font-family="Handlee" font-size="14.00"> CCSR🏴 = </text>
<text text-anchor="start" x="629.5" y="-164.3" font-family="Handlee" font-weight="bold" font-size="14.00">0</text>
<text text-anchor="start" x="639.5" y="-164.3" font-family="Handlee" font-size="14.00">, CCRS = </text>
<text text-anchor="start" x="708.5" y="-164.3" font-family="Handlee" font-weight="bold" font-size="14.00">0</text>
<polygon fill="none" stroke="black" points="8.5,-103.5 8.5,-155.5 90.5,-155.5 90.5,-103.5 8.5,-103.5"/>
<text text-anchor="start" x="32.5" y="-125.8" font-family="Handlee" font-size="14.00">i + 3</text>
<polygon fill="none" stroke="black" points="90.5,-103.5 90.5,-155.5 181.5,-155.5 181.5,-103.5 90.5,-103.5"/>
<text text-anchor="start" x="121.5" y="-125.8" font-family="Handlee" font-size="14.00">ACC</text>
<polygon fill="GreenYellow" stroke="transparent" points="181.5,-103.5 181.5,-155.5 485.5,-155.5 485.5,-103.5 181.5,-103.5"/>
<polygon fill="none" stroke="black" points="181.5,-103.5 181.5,-155.5 485.5,-155.5 485.5,-103.5 181.5,-103.5"/>
<text text-anchor="start" x="313.5" y="-125.8" font-family="Handlee" font-size="14.00">callee</text>
<polygon fill="none" stroke="black" points="485.5,-103.5 485.5,-155.5 780.5,-155.5 780.5,-103.5 485.5,-103.5"/>
<text text-anchor="start" x="546" y="-140.3" font-family="Handlee" font-size="14.00"> bal&#39; += val, warmth&#39; ↗ &#160;</text>
<text text-anchor="start" x="523" y="-126.3" font-family="Handlee" font-size="14.00"> </text>
<text text-anchor="start" x="528" y="-126.3" font-family="Handlee" font-weight="bold" font-size="14.00">TRM🏴</text>
<text text-anchor="start" x="580" y="-126.3" font-family="Handlee" font-size="14.00"> = </text>
<text text-anchor="start" x="602" y="-126.3" font-family="Handlee" font-weight="bold" font-size="14.00">1</text>
<text text-anchor="start" x="612" y="-126.3" font-family="Handlee" font-size="14.00">, </text>
<text text-anchor="start" x="622" y="-126.3" font-family="Handlee" font-weight="bold" font-size="14.00">ROMLEX🏴</text>
<text text-anchor="start" x="706" y="-126.3" font-family="Handlee" font-size="14.00"> = </text>
<text text-anchor="start" x="728" y="-126.3" font-family="Handlee" font-weight="bold" font-size="14.00">1</text>
<text text-anchor="start" x="738" y="-126.3" font-family="Handlee" font-size="14.00"> </text>
<text text-anchor="start" x="525" y="-112.3" font-family="Handlee" font-size="14.00"> HAS_CODE = </text>
<text text-anchor="start" x="628" y="-112.3" font-family="Handlee" font-weight="bold" font-size="14.00">1</text>
<text text-anchor="start" x="638" y="-112.3" font-family="Handlee" font-size="14.00">, IS_PREC = </text>
<text text-anchor="start" x="726" y="-112.3" font-family="Handlee" font-weight="bold" font-size="14.00">0</text>
<text text-anchor="start" x="736" y="-112.3" font-family="Handlee" font-size="14.00"> </text>
<polygon fill="none" stroke="black" points="780.5,-103.5 780.5,-155.5 1254.5,-155.5 1254.5,-103.5 780.5,-103.5"/>
<text text-anchor="start" x="987" y="-125.8" font-family="Handlee" font-size="14.00">τ · h + 1</text>
<polygon fill="none" stroke="black" points="1254.5,-103.5 1254.5,-155.5 1325.5,-155.5 1325.5,-103.5 1254.5,-103.5"/>
<text text-anchor="start" x="1285" y="-125.8" font-family="Handlee" font-size="14.00">0</text>
<polygon fill="none" stroke="black" points="8.5,-78.5 8.5,-103.5 90.5,-103.5 90.5,-78.5 8.5,-78.5"/>
<text text-anchor="start" x="32.5" y="-87.3" font-family="Handlee" font-size="14.00">i + 4</text>
<polygon fill="none" stroke="black" points="90.5,-78.5 90.5,-103.5 181.5,-103.5 181.5,-78.5 90.5,-78.5"/>
<text text-anchor="start" x="121.5" y="-87.3" font-family="Handlee" font-size="14.00">ACC</text>
<polygon fill="Gold" stroke="transparent" points="181.5,-78.5 181.5,-103.5 485.5,-103.5 485.5,-78.5 181.5,-78.5"/>
<polygon fill="none" stroke="black" points="181.5,-78.5 181.5,-103.5 485.5,-103.5 485.5,-78.5 181.5,-78.5"/>
<text text-anchor="start" x="314.5" y="-87.3" font-family="Handlee" font-size="14.00">caller</text>
<polygon fill="none" stroke="black" points="485.5,-78.5 485.5,-103.5 780.5,-103.5 780.5,-78.5 485.5,-78.5"/>
<text text-anchor="start" x="547" y="-87.3" font-family="Handlee" font-size="14.00">bal &#45;= val, same warmth</text>
<polygon fill="none" stroke="black" points="780.5,-78.5 780.5,-103.5 1254.5,-103.5 1254.5,-78.5 780.5,-78.5"/>
<text text-anchor="start" x="987" y="-87.3" font-family="Handlee" font-size="14.00">τ · h + 0</text>
<polygon fill="none" stroke="black" points="1254.5,-78.5 1254.5,-103.5 1325.5,-103.5 1325.5,-78.5 1254.5,-78.5"/>
<text text-anchor="start" x="1285" y="-87.3" font-family="Handlee" font-size="14.00">0</text>
<polygon fill="none" stroke="black" points="8.5,-53.5 8.5,-78.5 90.5,-78.5 90.5,-53.5 8.5,-53.5"/>
<text text-anchor="start" x="32.5" y="-62.3" font-family="Handlee" font-size="14.00">i + 5</text>
<polygon fill="none" stroke="black" points="90.5,-53.5 90.5,-78.5 181.5,-78.5 181.5,-53.5 90.5,-53.5"/>
<text text-anchor="start" x="121.5" y="-62.3" font-family="Handlee" font-size="14.00">ACC</text>
<polygon fill="GreenYellow" stroke="transparent" points="181.5,-53.5 181.5,-78.5 485.5,-78.5 485.5,-53.5 181.5,-53.5"/>
<polygon fill="none" stroke="black" points="181.5,-53.5 181.5,-78.5 485.5,-78.5 485.5,-53.5 181.5,-53.5"/>
<text text-anchor="start" x="313.5" y="-62.3" font-family="Handlee" font-size="14.00">callee</text>
<polygon fill="none" stroke="black" points="485.5,-53.5 485.5,-78.5 780.5,-78.5 780.5,-53.5 485.5,-53.5"/>
<text text-anchor="start" x="569" y="-62.3" font-family="Handlee" font-size="14.00">bal&#39; ↶, warmth&#39; ↶ </text>
<polygon fill="none" stroke="black" points="780.5,-53.5 780.5,-78.5 1254.5,-78.5 1254.5,-53.5 780.5,-53.5"/>
<text text-anchor="start" x="987.5" y="-62.3" font-family="Handlee" font-size="14.00">τ · ρ + ε</text>
<polygon fill="none" stroke="black" points="1254.5,-53.5 1254.5,-78.5 1325.5,-78.5 1325.5,-53.5 1254.5,-53.5"/>
<text text-anchor="start" x="1259.5" y="-62.3" font-family="Handlee" font-size="14.00">τ · h + 1</text>
<polygon fill="none" stroke="black" points="8.5,-28.5 8.5,-53.5 90.5,-53.5 90.5,-28.5 8.5,-28.5"/>
<text text-anchor="start" x="32.5" y="-37.3" font-family="Handlee" font-size="14.00">i + 6</text>
<polygon fill="none" stroke="black" points="90.5,-28.5 90.5,-53.5 181.5,-53.5 181.5,-28.5 90.5,-28.5"/>
<text text-anchor="start" x="121.5" y="-37.3" font-family="Handlee" font-size="14.00">ACC</text>
<polygon fill="Gold" stroke="transparent" points="181.5,-28.5 181.5,-53.5 485.5,-53.5 485.5,-28.5 181.5,-28.5"/>
<polygon fill="none" stroke="black" points="181.5,-28.5 181.5,-53.5 485.5,-53.5 485.5,-28.5 181.5,-28.5"/>
<text text-anchor="start" x="314.5" y="-37.3" font-family="Handlee" font-size="14.00">caller</text>
<polygon fill="none" stroke="black" points="485.5,-28.5 485.5,-53.5 780.5,-53.5 780.5,-28.5 485.5,-28.5"/>
<text text-anchor="start" x="572.5" y="-37.3" font-family="Handlee" font-size="14.00">bal ↶, warmth ↶ </text>
<polygon fill="none" stroke="black" points="780.5,-28.5 780.5,-53.5 1254.5,-53.5 1254.5,-28.5 780.5,-28.5"/>
<text text-anchor="start" x="987.5" y="-37.3" font-family="Handlee" font-size="14.00">τ · ρ + ε</text>
<polygon fill="none" stroke="black" points="1254.5,-28.5 1254.5,-53.5 1325.5,-53.5 1325.5,-28.5 1254.5,-28.5"/>
<text text-anchor="start" x="1259.5" y="-37.3" font-family="Handlee" font-size="14.00">τ · h + 0</text>
<polygon fill="none" stroke="black" points="8.5,-3.5 8.5,-28.5 90.5,-28.5 90.5,-3.5 8.5,-3.5"/>
<text text-anchor="start" x="32.5" y="-12.3" font-family="Handlee" font-size="14.00">i + 7</text>
<polygon fill="none" stroke="black" points="90.5,-3.5 90.5,-28.5 181.5,-28.5 181.5,-3.5 90.5,-3.5"/>
<text text-anchor="start" x="120" y="-12.3" font-family="Handlee" font-size="14.00">CON</text>
<polygon fill="turquoise" stroke="transparent" points="181.5,-3.5 181.5,-28.5 485.5,-28.5 485.5,-3.5 181.5,-3.5"/>
<polygon fill="none" stroke="black" points="181.5,-3.5 181.5,-28.5 485.5,-28.5 485.5,-3.5 181.5,-3.5"/>
<text text-anchor="start" x="313.5" y="-12.3" font-family="Handlee" font-size="14.00">callee</text>
<polygon fill="turquoise" stroke="transparent" points="485.5,-3.5 485.5,-28.5 780.5,-28.5 780.5,-3.5 485.5,-3.5"/>
<polygon fill="none" stroke="black" points="485.5,-3.5 485.5,-28.5 780.5,-28.5 780.5,-3.5 485.5,-3.5"/>
<text text-anchor="start" x="582" y="-12.3" font-family="Handlee" font-size="14.00">initialize callee</text>
</g>
</g>
</svg>
